<svg xmlns="http://www.w3.org/2000/svg" viewBox="0 0 512 512" width="512" height="512">
  <defs>
    <linearGradient id="grad" x1="0%" y1="0%" x2="100%" y2="100%">
      <stop offset="0%" style="stop-color:#3b82f6;stop-opacity:1" />
      <stop offset="100%" style="stop-color:#8b5cf6;stop-opacity:1" />
    </linearGradient>
  </defs>

  <!-- Background -->
  <rect width="512" height="512" fill="#0a0a0a" rx="80"/>

  <!-- Hexagon symbol representing fractal/meta structure -->
  <g transform="translate(256, 256)">
    <!-- Outer hexagon -->
    <path d="M 0,-120 L 104,-60 L 104,60 L 0,120 L -104,60 L -104,-60 Z"
          fill="none"
          stroke="url(#grad)"
          stroke-width="8"
          stroke-linejoin="round"/>

    <!-- Middle hexagon -->
    <path d="M 0,-80 L 69,-40 L 69,40 L 0,80 L -69,40 L -69,-40 Z"
          fill="none"
          stroke="url(#grad)"
          stroke-width="6"
          stroke-linejoin="round"/>

    <!-- Inner hexagon -->
    <path d="M 0,-40 L 35,-20 L 35,20 L 0,40 L -35,20 L -35,-20 Z"
          fill="url(#grad)"
          stroke="none"/>

    <!-- Center dot -->
    <circle cx="0" cy="0" r="12" fill="#ffffff"/>

    <!-- Connecting lines (fractal pattern) -->
    <line x1="0" y1="-40" x2="0" y2="-80" stroke="url(#grad)" stroke-width="3"/>
    <line x1="35" y1="-20" x2="69" y2="-40" stroke="url(#grad)" stroke-width="3"/>
    <line x1="35" y1="20" x2="69" y2="40" stroke="url(#grad)" stroke-width="3"/>
    <line x1="0" y1="40" x2="0" y2="80" stroke="url(#grad)" stroke-width="3"/>
    <line x1="-35" y1="20" x2="-69" y2="40" stroke="url(#grad)" stroke-width="3"/>
    <line x1="-35" y1="-20" x2="-69" y2="-40" stroke="url(#grad)" stroke-width="3"/>
  </g>
</svg>
